<?xml version="1.0" standalone="no"?><!DOCTYPE svg PUBLIC "-//W3C//DTD SVG 1.1//EN" "http://www.w3.org/Graphics/SVG/1.1/DTD/svg11.dtd"><svg t="1734602066096" class="icon" viewBox="0 0 1024 1024" version="1.1" xmlns="http://www.w3.org/2000/svg" p-id="1536" xmlns:xlink="http://www.w3.org/1999/xlink" width="200" height="200"><path d="M85.333333 416c-17.493333 0-32-14.506667-32-32V277.333333c0-123.733333 100.693333-224 224-224H384c17.493333 0 32 14.506667 32 32s-14.506667 32-32 32H277.333333c-88.32 0-160 71.68-160 160V384c0 17.493333-14.506667 32-32 32z" fill="#292D32" opacity=".4" p-id="1537"></path><path d="M938.666667 416c-17.493333 0-32-14.506667-32-32V277.333333c0-88.32-71.68-160-160-160H640c-17.493333 0-32-14.506667-32-32s14.506667-32 32-32h106.666667c123.306667 0 224 100.266667 224 224V384c0 17.493333-14.506667 32-32 32z" fill="#292D32" p-id="1538"></path><path d="M746.666667 970.666667H682.666667c-17.493333 0-32-14.506667-32-32s14.506667-32 32-32h64c88.32 0 160-71.68 160-160V682.666667c0-17.493333 14.506667-32 32-32s32 14.506667 32 32v64c0 123.733333-100.693333 224-224 224z" fill="#292D32" opacity=".4" p-id="1539"></path><path d="M384 970.666667H277.333333c-123.306667 0-224-100.266667-224-224V640c0-17.493333 14.506667-32 32-32s32 14.506667 32 32v106.666667c0 88.32 71.68 160 160 160H384c17.493333 0 32 14.506667 32 32s-14.506667 32-32 32zM384 224H298.666667c-48.64 0-74.666667 25.6-74.666667 74.666667v85.333333c0 49.066667 26.026667 74.666667 74.666667 74.666667h85.333333c48.64 0 74.666667-25.6 74.666667-74.666667V298.666667c0-49.066667-26.026667-74.666667-74.666667-74.666667z" fill="#292D32" p-id="1540"></path><path d="M725.333333 224h-85.333333c-48.64 0-74.666667 25.6-74.666667 74.666667v85.333333c0 49.066667 26.026667 74.666667 74.666667 74.666667h85.333333c48.64 0 74.666667-25.6 74.666667-74.666667V298.666667c0-49.066667-26.026667-74.666667-74.666667-74.666667zM384 565.333333H298.666667c-48.64 0-74.666667 25.6-74.666667 74.666667v85.333333c0 49.066667 26.026667 74.666667 74.666667 74.666667h85.333333c48.64 0 74.666667-25.6 74.666667-74.666667v-85.333333c0-49.066667-26.026667-74.666667-74.666667-74.666667z" fill="#292D32" opacity=".4" p-id="1541"></path><path d="M725.333333 565.333333h-85.333333c-48.64 0-74.666667 25.6-74.666667 74.666667v85.333333c0 49.066667 26.026667 74.666667 74.666667 74.666667h85.333333c48.64 0 74.666667-25.6 74.666667-74.666667v-85.333333c0-49.066667-26.026667-74.666667-74.666667-74.666667z" fill="#292D32" p-id="1542"></path></svg>